<?xml version="1.0" encoding="UTF-8"?>
<!-- Full logo with background — used for legacy icon + splash mark. -->
<svg xmlns="http://www.w3.org/2000/svg" width="1024" height="1024" viewBox="0 0 1024 1024">
  <defs>
    <linearGradient id="bg" x1="0" y1="0" x2="1" y2="1">
      <stop offset="0" stop-color="#FFFFFF"/>
      <stop offset="1" stop-color="#FFFFFF"/>
    </linearGradient>
    <linearGradient id="card2" x1="0" y1="0" x2="1" y2="1">
      <stop offset="0" stop-color="#5C6BC0"/>
      <stop offset="1" stop-color="#3949AB"/>
    </linearGradient>
  </defs>
  <rect width="1024" height="1024" rx="220" fill="url(#bg)"/>
  <g transform="translate(512,512)">
    <g transform="rotate(-18)">
      <rect x="-150" y="-200" width="300" height="400" rx="42" ry="42" fill="url(#card2)"/>
      <rect x="-108" y="-150" width="86" height="66" rx="14" fill="#FFD54F"/>
      <line x1="-65" y1="-150" x2="-65" y2="-84" stroke="#B8860B" stroke-width="4"/>
      <line x1="-108" y1="-117" x2="-22" y2="-117" stroke="#B8860B" stroke-width="4"/>
      <g fill="none" stroke="#FFFFFF" stroke-width="16" stroke-linecap="round">
        <path d="M 40 -70 A 70 70 0 0 1 40 70"/>
        <path d="M 78 -110 A 120 120 0 0 1 78 110"/>
        <path d="M 116 -150 A 170 170 0 0 1 116 150"/>
      </g>
    </g>
  </g>
</svg>
